<?xml version="1.0" standalone="no"?>
<!DOCTYPE svg PUBLIC "-//W3C//DTD SVG 20010904//EN"
 "http://www.w3.org/TR/2001/REC-SVG-20010904/DTD/svg10.dtd">
<svg version="1.0" xmlns="http://www.w3.org/2000/svg"
 width="700.000000pt" height="700.000000pt" viewBox="0 0 700.000000 700.000000"
 preserveAspectRatio="xMidYMid meet">
<metadata>
Created by potrace 1.11, written by Peter Selinger 2001-2013
</metadata>
<g transform="translate(0.000000,700.000000) scale(0.100000,-0.100000)"
fill="#000000" stroke="none">
<path d="M1870 5112 c-85 -8 -156 -98 -180 -227 -7 -38 -14 -79 -17 -90 -5
-27 -5 -205 0 -230 3 -11 8 -56 12 -100 4 -44 9 -93 10 -110 7 -59 16 -171 20
-240 2 -38 7 -128 12 -200 14 -250 7 -871 -12 -1095 -5 -53 -24 -219 -31 -270
-2 -14 -6 -45 -10 -70 -3 -25 -6 -54 -8 -64 -5 -36 14 -110 38 -147 43 -65
163 -102 232 -73 46 19 93 105 110 198 3 17 9 49 14 71 8 37 12 60 25 165 5
44 6 293 1 340 -26 230 -35 954 -22 1702 5 303 -3 356 -59 405 -21 18 -40 31
-42 29 -3 -2 -17 -1 -31 2 -15 4 -43 6 -62 4z"/>
<path d="M385 5001 c-48 -22 -76 -66 -82 -130 -2 -25 -7 -280 -10 -566 l-5
-520 -37 -42 c-42 -47 -61 -99 -61 -164 0 -55 32 -125 70 -157 27 -22 30 -31
30 -81 0 -31 7 -110 15 -176 12 -104 19 -152 40 -285 2 -14 7 -45 10 -70 3
-25 8 -52 10 -60 2 -8 7 -31 10 -50 3 -19 8 -42 10 -50 2 -8 7 -35 10 -60 4
-24 8 -47 10 -50 2 -3 6 -30 10 -60 4 -30 8 -57 10 -60 2 -3 6 -26 10 -50 3
-25 8 -52 10 -60 2 -8 7 -37 10 -65 13 -115 44 -181 104 -220 61 -40 109 -46
214 -24 344 72 580 240 707 504 33 69 48 112 77 230 3 11 6 65 8 120 13 390
-229 731 -610 860 -22 8 -85 21 -140 30 -107 17 -146 34 -178 77 -27 36 -28
112 -2 358 2 19 6 64 9 100 4 36 9 94 13 130 13 136 9 227 -17 380 -5 30 -11
74 -14 97 -7 54 -30 99 -58 114 -39 21 -138 21 -183 0z m420 -1661 c258 -73
428 -267 426 -486 -1 -193 -112 -333 -316 -397 -149 -48 -163 -38 -217 148
-58 199 -67 255 -74 467 -11 289 8 317 181 268z"/>
<path d="M5868 4860 c-40 -22 -69 -58 -86 -108 -11 -33 -17 -286 -8 -347 2
-16 7 -75 11 -130 4 -55 9 -108 11 -118 2 -10 6 -62 9 -115 3 -53 8 -108 10
-122 2 -14 7 -54 10 -90 4 -36 9 -74 11 -85 2 -11 7 -40 10 -65 3 -25 22 -99
41 -165 113 -383 121 -474 62 -710 -69 -277 -154 -475 -203 -475 -7 0 -21 20
-30 45 -10 24 -32 56 -49 71 -27 23 -38 26 -84 22 -90 -8 -132 -67 -137 -193
-5 -129 43 -274 111 -340 60 -58 150 -64 250 -15 100 49 142 107 246 340 80
179 178 503 232 765 44 210 71 343 100 495 92 473 188 756 335 990 29 47 61
103 71 125 39 84 13 161 -66 196 -77 34 -135 12 -237 -93 -114 -116 -197 -279
-269 -531 -23 -78 -48 -153 -56 -166 l-16 -25 -18 23 c-16 20 -18 34 -12 99
14 165 5 495 -18 603 -13 62 -43 113 -77 128 -36 17 -113 12 -154 -9z"/>
<path d="M3712 4609 c-172 -31 -227 -198 -156 -474 19 -73 20 -77 38 -190 35
-213 44 -347 51 -755 9 -483 16 -625 35 -675 34 -89 152 -146 237 -114 94 35
184 198 188 339 2 73 -11 129 -54 241 -68 175 -61 337 22 549 58 147 120 243
302 466 81 98 160 198 176 220 26 39 47 102 43 132 -1 6 -2 19 -3 27 -2 27
-81 103 -134 130 -111 55 -194 18 -302 -135 -45 -63 -96 -116 -144 -149 -40
-28 -46 -22 -56 54 -17 129 -75 282 -119 310 -37 24 -77 32 -124 24z"/>
<path d="M4752 4329 c-112 -56 -151 -205 -107 -404 8 -38 17 -81 20 -95 25
-129 36 -191 45 -266 6 -49 13 -102 15 -119 6 -49 14 -144 21 -255 3 -58 7
-123 9 -145 6 -67 17 -420 18 -590 2 -133 5 -166 20 -197 23 -46 58 -81 100
-101 76 -36 117 -26 198 50 79 73 110 160 113 313 1 52 -13 108 -49 192 -8 21
-15 40 -16 43 0 2 -6 19 -13 37 -13 35 -14 83 -2 158 4 25 12 74 17 110 36
234 108 416 209 527 102 112 274 344 319 430 42 81 -13 168 -138 217 -95 37
-165 2 -294 -150 -48 -56 -105 -116 -126 -133 l-38 -30 -12 67 c-31 163 -75
275 -130 326 -42 40 -117 47 -179 15z"/>
<path d="M3043 3973 c-47 -16 -92 -62 -94 -96 -4 -67 5 -113 51 -269 28 -95
53 -180 55 -189 2 -8 10 -44 19 -80 24 -100 32 -184 30 -324 -2 -195 -13 -273
-54 -396 -57 -171 -169 -319 -243 -319 -43 0 -94 156 -132 400 -30 186 -35
402 -24 877 4 161 3 173 -17 200 -57 79 -217 90 -293 20 -51 -47 -65 -102 -76
-297 -3 -58 -8 -124 -11 -148 -10 -73 -11 -311 -3 -365 5 -28 11 -76 13 -107
20 -241 90 -492 199 -710 122 -246 300 -329 502 -234 70 33 135 87 199 168 72
90 142 223 161 306 2 8 13 56 25 105 61 252 75 390 75 730 -1 266 -1 271 -29
360 -46 151 -148 319 -216 355 -41 22 -95 27 -137 13z"/>
</g>
</svg>
