<svg id="acf0939c-cbac-4365-a0ea-00d8225cfff0" data-name="Layer 1" xmlns="http://www.w3.org/2000/svg" viewBox="0 0 305 305"><title>itunes-logo</title><path d="M109.59,230a26.56,26.56,0,0,0,3.2-.2,27.16,27.16,0,0,0,23.57-28.56v-.07a3.13,3.13,0,0,0,0-.44v-76.2l55-10.23v56.22a25.15,25.15,0,0,0-9.17-.51,27.16,27.16,0,0,0-23.59,28.63,24.37,24.37,0,0,0,24.48,22.71,25.14,25.14,0,0,0,3.23-.21,27.18,27.18,0,0,0,23.58-28.62v-.07a2.43,2.43,0,0,0,0-.38V78l0-.28a2.5,2.5,0,0,0-1.12-2.28,2.53,2.53,0,0,0-1.93-.36h0l-87,14.85a2.5,2.5,0,0,0-2.08,2.46v86.8a25.18,25.18,0,0,0-9.17-.52A27.11,27.11,0,0,0,85.08,207.3,24.4,24.4,0,0,0,109.59,230Z" fill="#fff"/><path d="M152.5,305C236.59,305,305,236.59,305,152.5S236.59,0,152.5,0,0,68.41,0,152.5,68.41,305,152.5,305Zm0-270A117.5,117.5,0,1,1,35,152.5,117.63,117.63,0,0,1,152.5,35Z" fill="#fff"/></svg>