<svg id="af4aa397-4079-4af8-8ea4-74e5aecbdb4e" data-name="Capa 1" xmlns="http://www.w3.org/2000/svg" viewBox="0 0 508.52 508.52"><title>spotify-logo</title><path d="M254.26,0C113.85,0,0,113.85,0,254.26S113.85,508.52,254.26,508.52,508.52,394.67,508.52,254.26,394.67,0,254.26,0ZM371.7,403.29a17.37,17.37,0,0,1-15.29,9.06,17.55,17.55,0,0,1-8.42-2.13,278.09,278.09,0,0,0-215.81-21.93,17.41,17.41,0,0,1-21.83-11.54c-2.86-9.18,2.29-28.7,11.54-31.59a313.17,313.17,0,0,1,243,24.69C373.32,374.46,376.4,394.87,371.7,403.29ZM404,307.53c-3.62,7-10.74,18.34-18.09,18.34a19.44,19.44,0,0,1-9.37-2.32,353,353,0,0,0-255.18-27,20.36,20.36,0,0,1-25-14.3c-2.92-10.9,3.47-29.43,14.34-32.39A393.79,393.79,0,0,1,395.28,280.1,20.31,20.31,0,0,1,404,307.53Zm13.51-76.69a23.36,23.36,0,0,1-10.36-2.45A428.12,428.12,0,0,0,214.4,183.16a435.94,435.94,0,0,0-104.53,12.72,23.29,23.29,0,0,1-28.22-17c-3.12-12.46,4.51-27.55,17-30.64a480.53,480.53,0,0,1,115.72-14.11A474.82,474.82,0,0,1,428,184.24a23.29,23.29,0,0,1,10.49,31.25C434.31,223.65,426.11,230.84,417.53,230.84Z" fill="#fff"/></svg>