<svg id="f2286586-e734-490a-a1e2-b11480e72192" data-name="e94263f6-17eb-4657-9e86-63453c542a6c" xmlns="http://www.w3.org/2000/svg" viewBox="0 0 512 388.37"><title>youtube-logo</title><path d="M506.7,83.91v0s-5.29-37.95-20.3-54.73C467,7.06,444.91,7.06,435.2,6.21,363.7.89,256,0,256,0S148.3.89,76.8,6.21C67.09,7.1,45,8,25.6,29.21,9.71,45.91,5.3,83.86,5.3,83.86s-5.3,45-5.3,90v41.49c0,45,5.3,89.16,5.3,89.16s5.29,37.95,20.3,54.73c19.42,22.07,45,21.18,56.5,23.83,40.6,4.41,173.9,5.3,173.9,5.3s107.7,0,179.2-6.18c9.71-.88,31.78-1.77,51.2-22.95,15-16.78,20.3-54.73,20.3-54.73s5.3-45,5.3-89.16V173.91C512,128.91,506.7,83.91,506.7,83.91ZM194.21,296.61V105.05l167.72,98Z" transform="translate(0 0)" fill="#fff"/></svg>